# xmcd
#
# Track frame offsets:
# 150
# 14860
# 31757
# 48637
# 70270
# 86860
# 103635
# 122690
# 140085
# 154140
# 172820
# 190675
# 205615
#
# Disc length: 2964 seconds
#
#
# Revision: 6
# Processed by: cddbd v1.5.2PL0 Copyright (c) Steve Scherf et al.
# Submitted via: FreeRIP 2.951 
#
DISCID=b20b920d
DTITLE=Shakira - Laundry service - Laundry Service
DYEAR=2001
DGENRE=Pop
TTITLE0=Objection (Tango)
TTITLE1=Underneath your clothes
TTITLE2=Whenever, wherever
TTITLE3=Rules
TTITLE4=The one
TTITLE5=Ready for the good times
TTITLE6=Fool
TTITLE7=Te dejo Madrid
TTITLE8=Poem to a horse
TTITLE9=Que me quedes Tu
TTITLE10=Eyes like yours (Ojos así)
TTITLE11=Suerte (Whenever, wherever)
TTITLE12=Te Aviso, te anuncio (Tango)
EXTD=YEAR: 2001
EXTT0=
EXTT1=
EXTT2=
EXTT3=
EXTT4=
EXTT5=
EXTT6=
EXTT7=
EXTT8=
EXTT9=
EXTT10=
EXTT11=
EXTT12=
PLAYORDER=
